P3
20 10
255
32 255 0 0 0 255 255 0 255 255 0 255 255 0 255 255 0 255 255 0 255 255 0 255 255 0 255 255 0 255 255 0 0 0 0 0 0 0 0 0 0 0 0 0 0 0 0 0 0 0 0 0 0 0 0 0 0 0 0 0 0 255 0 0 255 0 0 0 255 255 0 255 255 0 255 255 0 255 255 0 255 255 0 255 255 0 255 255 0 255 255 0 28 0 0 25 3 0 22 6 0 18 9 0 15 12 0 12 15 0 9 18 0 6 22 0 3 25 0 0 28 255 0 0 255 0 0 255 0 0 0 255 255 0 255 255 0 255 255 0 255 255 0 255 255 0 255 255 0 255 255 0 56 0 0 50 6 0 44 12 0 37 18 0 31 25 0 25 31 0 18 37 0 12 44 0 6 50 0 0 56 255 0 0 255 0 0 255 0 0 255 0 0 0 255 255 0 255 255 0 255 255 0 255 255 0 255 255 0 255 255 0 85 0 0 75 9 0 66 18 0 56 28 0 47 37 0 37 47 0 28 56 0 18 66 0 9 75 0 0 85 255 0 0 255 0 0 255 0 0 255 0 0 255 0 0 0 255 255 0 255 255 0 255 255 0 255 255 0 255 255 0 113 0 0 100 12 0 88 25 0 75 37 0 62 50 0 50 62 0 37 75 0 25 88 0 12 100 0 0 113 255 0 0 255 0 0 255 0 0 255 0 0 255 0 0 255 0 0 0 255 255 0 255 255 0 255 255 0 255 255 0 141 0 0 125 15 0 110 31 0 94 47 0 78 62 0 62 78 0 47 94 0 31 110 0 15 125 0 0 141 255 0 0 255 0 0 255 0 0 255 0 0 255 0 0 255 0 0 255 0 0 0 255 255 0 255 255 0 255 255 0 170 0 0 151 18 0 132 37 0 113 56 0 94 75 0 75 94 0 56 113 0 37 132 0 18 151 0 0 170 255 0 0 255 0 0 255 0 0 255 0 0 255 0 0 255 0 0 255 0 0 255 0 0 0 255 255 0 255 255 0 198 0 0 176 22 0 154 44 0 132 66 0 110 88 0 88 110 0 66 132 0 44 154 0 22 176 0 0 198 255 0 0 255 0 0 255 0 0 255 0 0 255 0 0 255 0 0 255 0 0 255 0 0 255 0 0 0 255 255 0 226 0 0 201 25 0 176 50 0 151 75 0 125 100 0 100 125 0 75 151 0 50 176 0 25 201 0 0 226 255 0 0 255 0 0 255 0 0 255 0 0 255 0 0 255 0 0 255 0 0 255 0 0 255 0 0 255 0 0 0 255 0 0 226 28 0 198 56 0 170 85 0 141 113 0 113 141 0 85 170 0 56 198 0 28 226 0 0 